<svg xmlns="http://www.w3.org/2000/svg" xmlns:xlink="http://www.w3.org/1999/xlink" xmlns:svgjs="http://svgjs.dev/svgjs" version="1.1" width="2000" height="1733" viewBox="0 0 2000 1733"><g transform="matrix(1,0,0,1,0.957726350923167,0.7029150575342555)"><svg xmlns="http://www.w3.org/2000/svg" xmlns:xlink="http://www.w3.org/1999/xlink" viewBox="0 0 285 247" data-background-color="#ffffff" preserveAspectRatio="xMidYMid meet" height="1733" width="2000"><g id="tight-bounds" transform="matrix(1,0,0,1,-0.136476005006557,-0.09997365579206985)"><svg viewBox="0 0 285.27277469852106 247.2" height="247.2" width="285.27277469852106"><g><svg viewBox="0 0 285.27277469852106 247.2" height="247.2" width="285.27277469852106"><g><svg viewBox="0 0 285.27277469852106 247.2" height="247.2" width="285.27277469852106"><g id="textblocktransform"><svg viewBox="0 0 285.27277469852106 247.2" height="247.2" width="285.27277469852106" id="textblock"><g><svg viewBox="0 0 285.27277469852106 247.2" height="247.2" width="285.27277469852106"><path d="M284.605 53.02C283.264 27.36 279.442 20.227 279.442 20.227 267.707-6.202 253.062-0.506 239.905 3.292 216.677 3.446 193.542 9.091 170.368 12.119 121.725 12.581 72.666 4.986 24.265 23.717 19.719 29.464-4.717 24.846 0.809 56.304 2.257 69.39 7.541 83.913 7.38 95.922 8.104 98.026 9.11 93.202 9.539 96.23 11.042 104.39 13.496 100.541 15.507 105.365 12.705 118.246 14.716 128.971 16.634 140.21 13.254 143.135 8.923 141.749 6.978 151.449 6.777 158.479 5.69 157.145 4.497 156.837 3.625 156.632 1.868 157.402 2.163 159.608 3.169 167.152-1.149 171.514 1.56 178.904-0.304 186.91 2.847 193.838 2.418 202.511 2.364 204.255 2.659 205.744 3.129 206.154 5.208 208.361 2.177 212.672 2.499 217.342 23.822 249.262 46.957 227.195 68.804 241.872 74.477 231.608 70.212 245.516 72.479 243.36 74.249 240.846 75.536 251.263 77.535 245.362 77.843 243.668 77.374 239.665 78.473 240.435 79.05 240.846 79.56 240.743 79.64 238.382 79.761 234.841 78.701 237.048 78.42 235.201 81.464 225.861 80.713 248.081 83.57 247.158 83.436 244.438 82.604 240.538 84.307 241.051 85.997 237.151 86.051 233.918 87.553 242.693 87.607 244.592 87.875 245.926 88.304 246.85 92.998 237.305 97.665 250.237 102.587 245.926 105.604 241.205 108.501 248.492 111.559 246.696 112.632 245.259 113.718 242.693 114.751 247.004 127.398 247.928 140.876 244.079 152.866 247.158 184.905 241.41 219.144 249.518 252.927 241.923 260.894 238.998 269.168 234.841 276.934 231.506 276.934 231.506 283.224 222.371 283.224 181.316S284.565 145.393 284.766 112.703C284.967 80.013 285.906 78.679 284.565 53.02Z" opacity="1" fill="#ff5858" data-fill-palette-color="tertiary"/><g transform="matrix(1,0,0,1,55.76832,26.230666666666668)"><svg width="173.73613469852106" viewBox="5.03000020980835 -35.77000045776367 31.909997940063477 35.77000045776367" height="194.73866666666666" data-palette-color="#ffffff"><path d="M5.03 0L5.03-35.77 17.75-35.77Q22.46-35.77 26.05-34.5 29.64-33.23 32.06-30.99 34.47-28.76 35.71-25.71 36.94-22.66 36.94-19.09L36.94-19.09Q36.94-16.85 36.44-14.55 35.94-12.26 34.89-10.14 33.84-8.03 32.23-6.18 30.62-4.32 28.38-2.94 26.15-1.56 23.28-0.78 20.41 0 16.87 0L16.87 0 5.03 0ZM11.08-31.47L11.08-4.3 17.77-4.3Q21.04-4.3 23.46-5.38 25.88-6.47 27.47-8.34 29.05-10.21 29.83-12.73 30.62-15.26 30.62-18.16L30.62-18.16Q30.62-21.34 29.71-23.8 28.81-26.27 27.06-27.98 25.32-29.69 22.78-30.58 20.24-31.47 16.99-31.47L16.99-31.47 11.08-31.47Z" opacity="1" transform="matrix(1,0,0,1,0,0)" fill="#ffffff" class="undefined-text-0" data-fill-palette-color="quaternary" id="text-0"/></svg></g></svg></g></svg></g></svg></g><g/></svg></g><defs/></svg><rect width="285.27277469852106" height="247.2" fill="none" stroke="none" visibility="hidden"/></g></svg></g></svg>